<svg data-v-423bf9ae="" xmlns="http://www.w3.org/2000/svg" viewBox="0 0 322 90" class="iconLeft"><!----><!----><!----><g data-v-423bf9ae="" id="c4561560-33b4-4110-8a87-6f2e904750bc" fill="#000000" transform="matrix(4.747767028389453,0,0,4.747767028389453,108.93339598638568,2.6558076094812435)"><path d="M3.07 3.64Q2.11 3.94 1.56 4.64Q1.01 5.34 0.91 6.12Q0.81 6.90 1.35 7.46Q1.89 8.03 3.46 8.75Q5.02 9.47 5.31 9.98Q5.59 10.49 5.23 10.96Q4.86 11.43 4.15 11.35Q3.44 11.27 2.72 10.82Q2.00 10.38 1.63 9.90Q1.26 9.43 1.58 8.68L1.58 8.68L1.48 8.57L0.27 9.98Q0.10 10.52 0.60 11.26Q1.11 12.00 1.77 12.39Q2.43 12.78 3.22 12.81Q4.01 12.84 4.74 12.20Q5.47 11.56 5.94 10.75Q6.42 9.94 6.32 9.07Q6.21 8.21 5.77 7.86Q5.32 7.52 3.56 6.69Q1.80 5.86 1.83 5.24Q1.87 4.61 2.71 4.55Q3.56 4.48 4.04 4.99Q4.52 5.50 4.01 6.15L4.01 6.15L4.20 6.32L5.58 4.65Q5.24 3.99 4.63 3.67Q4.03 3.35 3.07 3.64ZM9.29 6.54Q8.65 6.79 8.02 7.53L8.02 7.53Q6.43 9.04 6.89 10.32Q7.35 11.59 8.10 12.30Q8.86 13.02 9.44 12.52L9.44 12.52Q10.33 11.89 11.29 10.62L11.29 10.62L11.12 10.47Q10.55 11.13 10.07 11.42L10.07 11.42Q9.42 11.56 8.75 10.55Q8.09 9.54 7.98 8.65Q7.88 7.77 8.43 7.63Q8.99 7.49 9.27 7.86Q9.56 8.24 9.44 8.61Q9.32 8.98 8.83 9.33L8.83 9.33L8.33 9.71L8.53 10.00L10.25 8.63L10.81 8.14Q10.92 7.21 10.42 6.84Q9.91 6.47 9.29 6.54L9.29 6.54ZM14.01 6.52Q13.19 7.02 12.43 8.07Q11.67 9.11 11.61 9.85Q11.56 10.59 12.34 11.61Q13.12 12.63 13.54 12.68L13.54 12.68Q14.31 12.04 14.79 11.63L14.79 11.63Q14.98 12.37 15.87 12.73L15.87 12.73L17.21 11.09L16.99 10.94L16.69 11.26Q16.34 11.42 16.13 11.14Q15.91 10.87 15.93 10.47L15.93 10.47L15.93 7.18Q15.95 6.68 16.30 6.51L16.30 6.51L14.01 6.52ZM13.22 7.60L14.88 7.60L14.64 8.07L14.64 8.32L14.64 11.25Q14.04 11.72 13.17 10.45Q12.29 9.17 13.22 7.60L13.22 7.60ZM18.47 6.54L17.13 8.20L17.32 8.33Q17.75 7.75 18.01 7.88Q18.27 8.00 18.23 8.77L18.23 8.77L18.23 11.55Q18.37 12.53 19.08 12.68L19.08 12.68L20.43 11.37L20.32 11.23Q19.63 11.67 19.61 11.01L19.61 11.01L19.61 8.33Q19.66 7.54 20.02 7.51Q20.37 7.47 20.76 8.21L20.76 8.21L21.92 7.31Q21.47 6.63 20.97 6.51Q20.46 6.39 20.11 6.71Q19.76 7.03 19.52 7.55L19.52 7.55Q19.40 6.67 18.47 6.54L18.47 6.54ZM24.41 6.54Q23.78 6.79 23.00 7.53L23.00 7.53Q21.42 9.04 21.88 10.32Q22.33 11.59 22.98 12.20Q23.63 12.80 24.14 12.68L24.14 12.68Q25.18 11.89 26.14 10.62L26.14 10.62L25.97 10.47Q25.40 11.13 24.81 11.32L24.81 11.32Q24.14 11.20 23.57 10.30Q23.00 9.41 23.02 8.60Q23.04 7.79 23.43 7.68Q23.82 7.57 24.26 7.83Q24.71 8.09 24.80 8.85L24.80 8.85L25.93 7.87Q26.04 7.21 25.54 6.84Q25.03 6.47 24.41 6.54L24.41 6.54ZM26.76 5.36L26.76 5.36L26.76 8.72L26.76 11.53Q26.78 12.54 27.58 12.67L27.58 12.67L28.87 11.40L28.73 11.27L28.33 11.60Q28.06 11.48 28.09 10.58L28.09 10.58L28.09 8.01L28.59 7.59Q29.77 7.55 29.78 8.99L29.78 8.99L29.78 11.50Q29.77 12.50 30.54 12.65L30.54 12.65L31.84 11.39L31.71 11.21L31.31 11.58Q31.07 11.55 31.08 10.77L31.08 10.77L31.08 8.06Q31.06 7.14 30.49 6.75Q29.92 6.37 29.32 6.47L29.32 6.47L28.03 7.69L28.03 4.98Q27.98 3.52 28.53 3.11L28.53 3.11L28.42 2.98Q26.74 3.85 26.76 5.36ZM33.71 3.80L32.47 4.94Q33.22 5.07 33.26 6.04L33.26 6.04L34.54 5.02Q34.58 4.12 33.71 3.80L33.71 3.80ZM33.82 6.44L32.14 7.82L32.27 8.07L32.68 7.77Q33.04 7.77 32.96 8.80L32.96 8.80L32.96 11.58Q33.04 12.58 33.81 12.71L33.81 12.71L35.16 11.40L35 11.25L34.62 11.59Q34.24 11.57 34.29 10.53L34.29 10.53L34.28 7.64Q34.27 6.57 33.82 6.44L33.82 6.44ZM38.77 2.60L36.97 4.33Q36.47 4.62 36.53 6.62L36.53 6.62L35.99 6.68L35.14 8.04L35.27 8.15Q35.81 7.83 36.65 7.85L36.65 7.85L36.66 12.84Q36.71 14.09 36.29 14.31Q35.88 14.53 34.99 13.73L34.99 13.73L34.05 15.18Q36.20 15.29 37.07 14.10Q37.94 12.91 37.99 11.55L37.99 11.55L37.91 7.79L38.50 7.79L39.56 6.50L37.87 6.49Q37.80 4.35 37.99 3.99L37.99 3.99Q39.03 3.90 38.92 4.97L38.92 4.97L39.90 4.15Q40.22 3.77 40.01 3.32Q39.81 2.86 38.77 2.60L38.77 2.60ZM39.85 14.52Q41.47 15.87 43.03 14.68Q44.59 13.48 44.82 11.97L44.82 11.97L44.82 7.62Q44.69 6.62 43.98 6.47L43.98 6.47L42.49 7.93L42.65 8.15L43.09 7.73Q43.49 7.70 43.44 8.70L43.44 8.70L43.44 10.87Q43.08 11.44 42.44 11.38Q41.79 11.32 41.68 10.16L41.68 10.16L41.69 7.64Q41.69 6.64 40.89 6.49L40.89 6.49L39.33 8.03L39.47 8.28L39.89 7.88Q40.30 7.67 40.32 8.60L40.32 8.60L40.32 10.79Q40.42 12.26 41.90 12.76L41.90 12.76Q42.83 12.23 43.50 11.46L43.50 11.46L43.50 12.25Q43.61 14.14 42.66 14.14Q41.71 14.14 40.98 13.25L40.98 13.25L39.85 14.52Z"></path></g><defs data-v-423bf9ae=""><linearGradient data-v-423bf9ae="" gradientTransform="rotate(25)" id="62adc915-22b1-4f89-8cd3-852188c940aa" x1="0%" y1="0%" x2="100%" y2="0%"><stop data-v-423bf9ae="" offset="0%" style="stop-color: rgb(0, 102, 120); stop-opacity: 1;"></stop><stop data-v-423bf9ae="" offset="100%" style="stop-color: rgb(79, 168, 255); stop-opacity: 1;"></stop></linearGradient></defs><g data-v-423bf9ae="" id="ab859f62-37a7-4315-8277-abc9e10b491c" transform="matrix(1.0242053745152022,0,0,1.0242053745152022,0.9947489470544895,0)" stroke="none" fill="url(#62adc915-22b1-4f89-8cd3-852188c940aa)"><path d="M0 80.195l7.678 7.678L24.09 71.46l-7.676-7.677L0 80.195zm76.833-69.127C69.696 3.929 60.207 0 50.112 0 40.017 0 30.528 3.929 23.393 11.068c-7.137 7.138-11.069 16.627-11.069 26.721 0 10.093 3.932 19.584 11.069 26.721a38.09 38.09 0 006.718 5.344c-.33 2.458-.46 5.051-.463 7.712.061.858.538 1.105.74 1.267.429.271.816.392 1.272.541.669.212 1.431.406 1.989.586.089.027.173.056.248.083.265 3.267 1.876 5.495 4.255 6.482 2.478 1.066 5.521 1.11 8.997 1.122.854 0 1.737-.003 2.644-.003 4.148-.009 7.81.027 10.747-.943 1.465-.491 2.776-1.282 3.717-2.511.845-1.095 1.355-2.484 1.539-4.145a27.06 27.06 0 011.6-.497c.455-.136.893-.272 1.296-.443.202-.091.396-.181.621-.351.194-.159.593-.463.625-1.187-.002-2.552-.095-5.023-.352-7.376a38.052 38.052 0 007.251-5.682c14.729-14.734 14.729-38.709-.004-53.441zM34.837 77.737c-.605-.229-1.255-.384-1.894-.581-.3-.086-.584-.173-.802-.249a56.48 56.48 0 01.314-5.691c.976.517 1.974.988 2.99 1.417l-.693 5.048.085.056zm28.521 1.552c-.101 1.575-.498 2.624-1.076 3.378-.854 1.119-2.303 1.779-4.475 2.128-2.152.35-4.909.358-8.015.356-.915 0-1.799.004-2.644.004-3.432.014-6.256-.128-7.994-.913-1.692-.803-2.6-1.878-2.806-4.942-.228-1.755-.283-4.161-.269-6.41a37.743 37.743 0 0014.032 2.688c4.67 0 9.206-.851 13.444-2.462-.086 2.995-.175 5.941-.197 6.173zM50.114 65.734a27.743 27.743 0 01-14.879-4.288c.933-1.655 2.107-3.067 3.583-4.171a20.322 20.322 0 002.781 1.451 6.65 6.65 0 001.062 2.671c1.092 1.649 3.386 3.189 7.188 3.161h.114c3.685 0 5.923-1.579 6.965-3.258a7.003 7.003 0 001.006-2.669 20.287 20.287 0 002.879-1.574c1.684 1.191 2.946 2.722 3.908 4.562-4.352 2.679-9.367 4.115-14.607 4.115zm-.499-7.855c-.104-.001-.207-.006-.31-.008-.207-.003-.412-.016-.618-.024-8.856-.524-15.955-7.518-16.645-16.329l3.475-5.175s3.769 2.729 11.749 4.512c7.979 1.784 15.494-.085 15.494-.085s2.122 3.956 3.677 5.294a17.777 17.777 0 01-5.729 7.978L60.639 54l-.668.486a17.63 17.63 0 01-10.356 3.393zm5.373 1.797a3.927 3.927 0 01-.783 1.028c-.768.709-2.013 1.354-4.355 1.363-3.199-.028-4.439-1.105-5.131-2.071-.06-.086-.107-.175-.158-.262 1.304.334 2.656.539 4.045.608.169.008.342.011.512.015.149.004.297.016.447.016.018 0 .035-.004.052-.004.035.001.069.004.104.004 1.822 0 3.587-.245 5.267-.697zm10.601 17.808c-.115.036-.225.073-.334.108l-.669-4.873a36.667 36.667 0 002.622-1.22 66.53 66.53 0 01.234 5.417c-.459.167-1.196.367-1.853.568zm1.205-17.268c-.989-1.808-2.27-3.41-3.914-4.714 4.326-3.71 7.071-9.212 7.072-15.359-.001-11.174-9.058-20.229-20.232-20.23-11.172.002-20.227 9.057-20.229 20.23.001 6.263 2.847 11.857 7.313 15.568-1.479 1.225-2.665 2.68-3.619 4.311a28.428 28.428 0 01-2.832-2.472c-10.897-10.897-10.897-28.626 0-39.521 5.277-5.279 12.296-8.184 19.76-8.184 7.464 0 14.481 2.905 19.763 8.183 5.278 5.278 8.186 12.295 8.186 19.76 0 7.467-2.907 14.484-8.186 19.763a28.378 28.378 0 01-3.082 2.665zm-21.391-10.81c1.128 0 2.042-1.48 2.042-3.309s-.914-3.31-2.042-3.31c-1.127 0-2.042 1.481-2.042 3.31s.915 3.309 2.042 3.309zm15.6 1.406a.625.625 0 00-.915-.85c-.001 0-.225.246-.686.64-1.385 1.188-4.744 3.57-9.243 3.563-3.025 0-5.571-.894-7.36-1.794a16.652 16.652 0 01-2.075-1.231c-.476-.333-.708-.54-.709-.54a.62.62 0 00-.879.06c-.227.258-.2.65.06.879.056.042 4.413 3.863 10.967 3.874 6.601-.016 10.786-4.557 10.84-4.601zm-6.587-1.406c1.128 0 2.044-1.48 2.044-3.309s-.916-3.31-2.044-3.31c-1.127 0-2.04 1.481-2.04 3.31s.912 3.309 2.04 3.309z"></path></g><!----></svg>